<svg width="30" height="30" viewBox="0 0 30 30" fill="none" xmlns="http://www.w3.org/2000/svg">
    <path d="M14.3129 14.9965L0.141628 0.825213C-0.047226 0.636298 -0.047226 0.330067 0.141628 0.141153C0.330544 -0.0477019 0.636776 -0.0477019 0.825691 0.141153L14.997 14.3124L29.1683 0.141153C29.3604 -0.0444364 29.6667 -0.0391149 29.8523 0.153066C30.0334 0.340529 30.0334 0.63775 29.8523 0.825213L15.681 14.9965L29.8523 29.1678C30.0445 29.3534 30.0498 29.6597 29.8642 29.8518C29.6785 30.044 29.3723 30.0493 29.1801 29.8637C29.1761 29.8598 29.1721 29.8558 29.1683 29.8518L14.997 15.6806L0.825691 29.8518C0.633511 30.0375 0.327278 30.0322 0.141628 29.84C-0.0394859 29.6525 -0.0394859 29.3552 0.141628 29.1678L14.3129 14.9965Z" fill="#E8C9B2"/>
</svg>


