<svg width="14" height="16" viewBox="0 0 14 16" fill="none" xmlns="http://www.w3.org/2000/svg">
    <circle cx="7" cy="8" r="7" fill="white" fill-opacity="0.2"/>
    <path fill-rule="evenodd" clip-rule="evenodd" d="M6.59995 5.10466C5.09048 2.60522 8.96316 2.27079 8.0346 4.58101C8.0522 2.80764 6.08946 3.4545 6.73197 4.94185C7.12804 5.79993 7.60772 5.26308 7.88497 5.04306C7.88937 5.03866 7.81016 5.18827 7.81016 5.19267C7.77935 5.24548 7.14124 6.05076 6.59995 5.10466Z" fill="#C75979"/>
    <path fill-rule="evenodd" clip-rule="evenodd" d="M6.56472 6.77686C7.37887 7.30491 8.36025 8.59424 8.52308 8.96387C9.1304 10.3632 7.79695 12.0442 7.84976 16.0002C7.36567 13.9936 7.64292 12.9727 7.62972 11.9606C7.68253 11.0805 7.23804 9.2587 4.79999 11.3225C6.90358 9.10029 8.00819 10.3544 7.97298 10.9661C8.17542 9.87917 8.12261 9.44352 8.03899 9.1883C7.60771 7.80656 5.82978 7.88577 6.56472 6.77686Z" fill="#C75979"/>
    <path fill-rule="evenodd" clip-rule="evenodd" d="M6.59551 9.00342C1.8294 13.4083 6.84636 9.77349 7.37006 12.8846C6.73634 11.3577 4.02542 12.2729 4.00781 12.0661C3.9374 11.2124 4.30707 9.88791 6.59551 9.00342Z" fill="#C75979"/>
    <path fill-rule="evenodd" clip-rule="evenodd" d="M7.22046 0.0395508C5.77259 2.64901 5.05966 3.97794 6.49432 6.59621C3.57658 3.59071 6.46352 1.20567 7.22046 0.0395508Z" fill="#C75979"/>
    <path fill-rule="evenodd" clip-rule="evenodd" d="M7.32605 0C8.77392 2.61386 9.71129 3.9692 8.27662 6.58746C11.0403 3.63476 8.08299 1.16612 7.32605 0Z" fill="#C75979"/>
</svg>
