<svg width="36" height="36" viewBox="0 0 36 36" fill="none" xmlns="http://www.w3.org/2000/svg">
    <circle cx="18" cy="18" r="18" fill="white" fill-opacity="0.2"/>
    <path fill-rule="evenodd" clip-rule="evenodd" d="M25.5167 11.3508C24.8438 12.3906 21.0513 19.0575 10.7992 14.5558C11.313 13.1001 12.8912 3.33827 10.8237 3.04468C12.6465 5.36892 7.53271 16.5987 9.42898 16.403C13.7965 17.614 17.3688 18.189 20.0848 17.6018C23.5837 16.8311 25.7491 13.7484 26.6789 11.6077C27.3885 9.94402 24.905 7.50968 23.9874 6.64114C23.6938 6.37202 26.422 10.3232 25.5167 11.3508Z" fill="#C75979"/>
    <path fill-rule="evenodd" clip-rule="evenodd" d="M14.9831 14.4818C15.7906 12.3288 18.0049 12.9405 19.8033 13.9436C21.1368 14.3106 23.1187 8.12073 22.0911 7.59472C18.4453 5.75979 11.3986 7.71705 10.3954 9.94343C12.414 8.51219 16.8916 7.30113 21.0757 8.57335C21.8586 8.80577 20.4395 12.7815 19.5097 12.5857C17.4055 11.6316 14.7507 11.6683 14.9831 14.4818Z" fill="#C75979"/>
    <path fill-rule="evenodd" clip-rule="evenodd" d="M20.2198 17.5283C20.4155 29.6266 17.5895 23.1065 16.7331 36C15.9379 34.3241 16.2927 27.7305 17.5405 25.6142C19.4613 22.3848 17.8953 17.7607 18.6416 17.6873L20.2198 17.5283Z" fill="#C75979"/>
    <path fill-rule="evenodd" clip-rule="evenodd" d="M23.8161 1.98022C20.0235 -3.21875 15.0688 3.17904 20.0847 5.68678C17.3688 3.26467 20.1214 -0.662082 23.0086 2.62856C24.6357 4.58582 23.8895 5.30756 23.1799 5.62561C23.7182 5.71124 25.749 4.73261 23.8161 1.98022Z" fill="#C75979"/>
</svg>
