<svg width="14" height="16" viewBox="0 0 14 16" fill="none" xmlns="http://www.w3.org/2000/svg">
    <circle cx="7" cy="8" r="7" fill="white" fill-opacity="0.2"/>
    <path d="M6.70528 8.21421C5.88931 8.3495 5.06912 8.29454 4.24893 8.3199C3.46679 8.34527 2.71001 8.51438 2.05048 8.94562C1.3994 9.3684 0.934343 10.0448 0.604576 10.7382C0.253669 11.4654 0.0507345 12.256 0.0169122 13.0635C0.00422882 13.3594 0 13.6554 0 13.9513C0 14.2431 0.00845557 14.5263 0.105695 14.8054C0.126834 14.8688 0.224075 14.8603 0.245214 14.8011C0.40587 14.3276 0.509108 13.7972 0.538702 13.3026C0.568297 12.8713 0.60582 12.4749 0.71997 12.0564C0.922904 11.3038 1.22923 10.6202 1.69428 9.99444C2.15934 9.3645 2.71907 8.93002 3.4843 8.74822C4.2749 8.55797 5.06066 8.51861 5.86394 8.42983C6.15566 8.396 6.4347 8.33681 6.7095 8.23535C6.71796 8.22266 6.71373 8.20998 6.70528 8.21421Z" fill="#C75979"/>
    <path d="M12.1211 8.31562C11.9562 8.15074 11.6857 8.18879 11.4869 8.26066C11.2417 8.34945 11.043 8.54393 10.8612 8.72149C10.6583 8.92443 10.468 9.13582 10.2271 9.30493C9.97339 9.48672 9.72395 9.66852 9.44914 9.81649C8.93758 10.0955 8.31187 10.2435 7.71997 10.2731C7.41557 10.2858 7.10272 10.2604 6.79831 10.2097C6.63343 10.1801 6.46855 10.142 6.30366 10.0955C6.25716 10.0828 6.21065 10.0659 6.16414 10.0532C6.26138 9.92642 6.37553 9.80804 6.48546 9.69389C6.49814 9.68966 6.51082 9.68543 6.51928 9.6812C6.66302 9.62202 6.81522 9.58396 6.9632 9.53746C7.29297 9.44445 7.62696 9.34298 7.91445 9.16964C8.15121 9.03012 8.30341 8.78491 8.21885 8.5101C8.07934 8.06196 7.58891 8.07041 7.25492 8.2818C7.25069 8.28603 7.25492 8.29449 7.25914 8.29026C7.47899 8.19302 7.76648 8.17188 7.93982 8.37059C8.02015 8.4636 8.06243 8.61157 8.0286 8.72572C7.96096 8.94557 7.65656 9.05972 7.46208 9.13582C7.1915 9.24151 6.9766 9.26698 6.7018 9.35999C6.6257 9.38536 6.26561 9.46136 6.16414 9.53746C5.93584 9.61779 5.75523 9.75886 5.63685 9.94911C5.55652 10.0802 5.61333 10.2963 5.72748 10.3343C5.80358 10.402 5.94746 10.4818 6.0447 10.5156C6.20959 10.5748 6.39673 10.6029 6.56585 10.6409C6.87448 10.7043 7.18199 10.7138 7.49484 10.6968C8.09096 10.6715 8.76424 10.4507 9.27158 10.1547C9.52947 10.0025 9.78737 9.86723 10.0284 9.69389C10.2778 9.51209 10.5019 9.29224 10.7175 9.07663C10.9077 8.8906 11.0726 8.68344 11.2882 8.52279C11.3982 8.44246 11.5208 8.37904 11.6561 8.34945C11.804 8.31563 11.9393 8.36636 12.0873 8.37059C12.1211 8.36213 12.1423 8.33253 12.1211 8.31562Z" fill="#C75979"/>
    <path d="M12.1211 8.38345C11.7786 8.70477 11.5461 9.136 11.284 9.52073C11.0092 9.92237 10.6228 10.2991 10.2592 10.6289C9.67996 11.1489 9.04466 11.3661 8.28788 11.5352C7.54379 11.7043 6.8057 11.8291 6.0447 11.8164C5.65574 11.808 5.25541 11.8333 4.86646 11.8164C4.51978 11.8037 4.19818 11.8122 3.8515 11.8502C3.37376 11.901 2.95098 12.1885 2.80724 12.6535C2.80301 12.662 2.81569 12.6704 2.82415 12.662C3.02285 12.3491 3.29766 12.1673 3.67393 12.1589C4.01638 12.1504 4.35461 12.1969 4.69283 12.2181C5.46652 12.2688 6.2402 12.3068 7.01812 12.273C7.77912 12.2392 8.52744 12.1081 9.23348 11.8164C10.0029 11.4951 10.6625 10.9666 11.1487 10.2944C11.3558 10.0069 11.5292 9.6983 11.7025 9.38544C11.8759 9.07258 12.0703 8.77664 12.231 8.45955C12.2564 8.40036 12.1718 8.34118 12.1211 8.38345Z" fill="#C75979"/>
    <path d="M11.6433 7.96462C11.4573 7.76592 11.1233 7.78283 10.8823 7.85047C10.6075 7.92657 10.3919 8.09991 10.1847 8.28594C9.7408 8.68335 9.42795 9.21605 8.97557 9.59655C8.96712 9.60501 8.97557 9.61769 8.98825 9.60924C9.43217 9.29215 9.7704 8.86092 10.1763 8.50155C10.3792 8.31976 10.6033 8.17601 10.8569 8.083C11.1148 7.98999 11.3431 8.08723 11.6053 8.07455C11.6518 8.07032 11.6771 7.99844 11.6433 7.96462Z" fill="#C75979"/>
    <path d="M7.3309 8.98336C7.32245 8.93263 7.26326 8.8988 7.23366 8.86075C7.1787 8.78465 7.17025 8.68741 7.13642 8.59863C7.1322 8.59017 7.12374 8.59017 7.11951 8.59863C7.06032 8.67473 7.06032 8.76774 7.08146 8.85653C7.09837 8.9284 7.17447 9.08483 7.26748 9.06792C7.30976 9.05946 7.33513 9.02141 7.3309 8.98336Z" fill="#C75979"/>
    <path d="M3.21309 15.7396C3.19618 15.3464 3.14121 14.9659 3.06511 14.5812C2.98901 14.1965 2.87064 13.8244 2.79031 13.4397C2.78608 13.427 2.76917 13.427 2.76917 13.4439C2.79031 13.8075 2.79454 14.1711 2.82413 14.5347C2.85373 14.8645 2.87909 15.1985 2.89178 15.5282C2.11386 15.6466 1.27676 15.7269 0.519985 15.4733C0.498846 15.4648 0.481935 15.4944 0.498846 15.5113C1.2218 16.0652 2.13077 16.044 2.99324 15.9468C3.02707 15.9426 3.05666 15.9341 3.08203 15.9172C3.1539 15.9003 3.21732 15.8411 3.21309 15.7396Z" fill="#C75979"/>
    <path d="M4.69286 5.20801C4.68441 5.20801 4.68441 5.22069 4.69286 5.22069C4.69709 5.22069 4.69709 5.20801 4.69286 5.20801Z" fill="#C75979"/>
    <path d="M9.28001 0.777114C9.10667 0.540357 8.81073 0.392384 8.54861 0.278234C8.21038 0.134489 7.85102 0.0457053 7.4832 0.0118829C7.14075 -0.0219395 6.80676 0.0161102 6.48122 0.130261C6.29097 0.197906 6.01616 0.354334 5.87664 0.553041C5.86818 0.557269 5.86396 0.561496 5.8555 0.569952C5.65679 0.755975 5.51305 1.02655 5.34816 1.24217C5.17482 1.47047 5.00149 1.69877 4.82815 1.92285C4.47724 2.37522 4.12633 2.81914 3.77543 3.27152C3.42452 3.71966 3.07784 4.17204 2.74807 4.6371C2.41407 5.10215 2.11813 5.58835 1.8095 6.07032C1.80527 6.07455 1.81373 6.083 1.81796 6.07455C2.13927 5.60103 2.50709 5.15712 2.86645 4.7132C3.22159 4.26505 3.63472 3.87068 3.99831 3.43521C4.36613 2.99552 4.73817 2.60537 5.10177 2.16568C5.28356 1.94584 5.46958 1.72599 5.64715 1.50192C5.78244 1.33703 5.99264 1.12261 6.11947 0.94081C6.21249 0.881621 6.28436 0.784381 6.36891 0.716736C6.47884 0.627952 6.60567 0.564535 6.73673 0.513802C7.01577 0.408107 7.25067 0.350107 7.54662 0.367018C8.15542 0.396612 8.67967 0.641825 9.25042 0.815165C9.28002 0.823621 9.29693 0.798253 9.28001 0.777114Z" fill="#C75979"/>
    <path d="M13.5416 1.08589C13.3091 0.806859 12.9243 0.61238 12.5988 0.46018C12.2859 0.316436 11.9435 0.231881 11.601 0.202287C11.2586 0.172692 10.9119 0.21497 10.5779 0.299525C10.4003 0.346031 10.227 0.413675 10.0579 0.489775C9.85917 0.578558 9.7112 0.701163 9.5294 0.819541C9.52517 0.819541 9.5294 0.827997 9.53363 0.823769C9.69851 0.751897 9.88876 0.718075 10.0621 0.658886C10.2312 0.603925 10.4003 0.561647 10.5737 0.532053C10.8908 0.472864 11.2078 0.451725 11.5292 0.489775C11.8462 0.527825 12.1506 0.625064 12.4381 0.760353C12.5861 0.827997 12.7214 0.916781 12.8567 1.00556C13.0131 1.11126 13.1526 1.24655 13.3133 1.34379C13.4782 1.44525 13.6726 1.24232 13.5416 1.08589Z" fill="#C75979"/>
    <path d="M13.3515 1.12394C13.119 1.25923 12.9921 1.54249 12.8484 1.75811C12.6877 2.00332 12.5313 2.25276 12.3707 2.5022C12.0493 3.00531 11.7407 3.51264 11.4405 4.02843C10.836 5.05579 10.2863 6.10428 9.73673 7.16123C9.72405 7.18237 9.7621 7.20351 9.77901 7.18237C10.4259 6.18884 11.0431 5.18262 11.6731 4.18063C11.9901 3.67753 12.3157 3.17865 12.6497 2.68399C12.8146 2.43878 12.9921 2.20203 13.1697 1.96527C13.3261 1.75811 13.5544 1.54672 13.6094 1.29305C13.639 1.16621 13.4657 1.06052 13.3515 1.12394Z" fill="#C75979"/>
    <path d="M6.9971 4.21444C7.31418 3.76207 7.64818 3.32661 7.97372 2.88269C8.19357 2.58674 8.43878 2.29925 8.65017 1.99485C8.66285 1.97371 8.63749 1.95257 8.61635 1.96525C8.31195 2.17242 8.0625 2.50219 7.82152 2.77699C7.44525 3.21246 7.09434 3.67751 6.76034 4.1468C6.44326 4.58649 6.1304 5.03041 5.87673 5.50815C5.77526 5.69417 5.60615 5.96898 5.58924 6.21419C5.40322 6.10427 5.17069 6.03239 4.97198 5.96898C4.65912 5.86751 4.33781 5.79141 4.00381 5.76182C3.70364 5.73222 3.39078 5.74913 3.09484 5.8041C2.79466 5.86328 2.54945 6.0028 2.31269 6.17614C2.30847 6.18037 2.31269 6.18883 2.32115 6.1846C2.80735 5.87597 3.47534 5.87174 4.02495 5.96898C4.30822 6.01971 4.58725 6.10004 4.84937 6.20574C5.09882 6.3072 5.32289 6.46363 5.57656 6.55664C5.5977 6.5651 5.61884 6.56933 5.63575 6.56933C5.65266 6.58624 5.67802 6.59892 5.70339 6.60315C5.86405 6.62429 6.02471 6.56933 6.18536 6.53973C6.34179 6.50591 6.49822 6.48477 6.65887 6.46363C6.95905 6.42135 7.25077 6.42135 7.55094 6.45095C7.85112 6.48054 8.13861 6.5651 8.41764 6.67925C8.70936 6.80186 8.96303 7.05129 9.2632 7.13162C9.28434 7.13585 9.30548 7.11894 9.2928 7.0978C9.13637 6.83568 8.78546 6.67079 8.51911 6.5355C8.22316 6.38753 7.92299 6.26493 7.60168 6.19305C7.28882 6.12118 6.95905 6.10427 6.64196 6.12541C6.39252 6.14232 6.06698 6.17191 5.81331 6.28606C5.826 6.04931 6.02471 5.74068 6.14308 5.53352C6.40521 5.08537 6.6927 4.64568 6.9971 4.21444Z" fill="#C75979"/>
    <path d="M11.339 1.1112C11.1699 1.06469 10.9839 1.06469 10.8063 1.07315C10.4934 1.09006 10.1045 1.17039 9.85928 1.38178C9.85082 1.39023 9.85928 1.40292 9.86773 1.39869C10.2271 1.2634 10.5738 1.21689 10.9585 1.27185C11.1234 1.29299 11.2798 1.34373 11.4405 1.38178C11.525 1.40292 11.635 1.39869 11.6307 1.29299C11.6223 1.17461 11.4236 1.13234 11.339 1.1112Z" fill="#C75979"/>
    <path d="M6.07122 7.14861C5.91057 7.22048 5.73722 7.30081 5.55966 7.31772C5.49201 7.32617 5.39477 7.3304 5.33558 7.29235C5.29331 7.26699 5.26371 7.22893 5.23412 7.19511C5.23412 7.16129 5.22566 7.12747 5.20452 7.09365C4.85362 6.57363 4.14334 6.38338 3.55145 6.37915C3.22168 6.37492 2.9046 6.42566 2.58752 6.51444C2.43531 6.55672 2.28312 6.61168 2.13937 6.6751C2.00831 6.73428 1.91107 6.81884 1.79692 6.89917C1.79269 6.90339 1.79692 6.91185 1.80115 6.90762C2.04213 6.81038 2.33385 6.74274 2.58752 6.69201C2.87078 6.63282 3.16673 6.61168 3.45844 6.62436C3.74171 6.63282 4.02074 6.68778 4.28286 6.78925C4.5619 6.89494 4.75638 7.06405 4.94663 7.28812C4.95508 7.30081 4.96777 7.30926 4.97622 7.31772C4.9889 7.38959 5.02696 7.45723 5.08615 7.51219C5.2003 7.62212 5.34404 7.65171 5.49624 7.64748C5.74568 7.64326 6.05854 7.42341 6.1135 7.1782C6.11773 7.15706 6.09236 7.14015 6.07122 7.14861Z" fill="#C75979"/>
    <path d="M13.4064 2.54423C13.2119 2.70489 13.0682 2.9501 12.8864 3.13189C12.6877 3.33483 12.5566 3.57159 12.4129 3.81257C12.1296 4.29454 11.8506 4.77651 11.5631 5.25425C11.2883 5.71085 10.9923 6.15899 10.6668 6.57755C10.5019 6.78894 10.3286 6.98764 10.1468 7.18212C9.99035 7.347 9.8001 7.48652 9.66481 7.66832C9.59294 7.60913 9.50838 7.58799 9.4196 7.55417C9.30545 7.51189 9.19553 7.45693 9.0856 7.40619C8.84462 7.28781 8.61209 7.16521 8.35842 7.07643C7.82572 6.88617 7.21692 6.91154 6.6969 7.12716C6.68421 7.13139 6.69267 7.1483 6.70112 7.14407C7.28456 7.12293 7.85531 7.16944 8.38379 7.42733C8.59095 7.5288 8.78966 7.64718 8.99259 7.7571C9.18284 7.85857 9.43228 8.02768 9.65213 7.96004C9.6775 7.95158 9.69863 7.9389 9.71555 7.91776C9.71555 7.91776 9.71554 7.91776 9.71977 7.91776C9.96921 7.85011 10.1552 7.64718 10.3328 7.46961C10.5188 7.28359 10.6922 7.08065 10.857 6.86927C11.191 6.4338 11.4659 5.96452 11.7322 5.48678C12.0028 4.99635 12.248 4.49747 12.5228 4.00705C12.6623 3.75338 12.8018 3.49971 12.954 3.2545C13.0978 3.0262 13.3514 2.82327 13.4402 2.5696C13.4445 2.54846 13.4233 2.52732 13.4064 2.54423Z" fill="#C75979"/>
</svg>
