<svg width="16" height="14" viewBox="0 0 16 14" fill="none" xmlns="http://www.w3.org/2000/svg">
    <circle cx="7.99854" cy="7" r="7" fill="white" fill-opacity="0.2"/>
    <path fill-rule="evenodd" clip-rule="evenodd" d="M10.8718 2.00068C10.6979 2.03172 10.5551 2.16832 10.3875 2.23041C10.1826 2.31112 9.95904 2.34838 9.74173 2.38563C9.39403 2.44151 9.04633 2.46635 8.69242 2.46635C7.99702 2.46635 7.30782 2.367 6.62484 2.2987C5.96048 2.23041 5.23404 2.26766 4.59452 2.46635C4.42067 2.52223 4.20957 2.60915 4.01709 2.72091C3.84945 2.47255 3.31548 2.44772 3.06091 2.39805C2.65733 2.32354 2.22892 2.28629 1.82534 2.39184C1.81913 2.39184 1.81913 2.39805 1.82534 2.39805C2.18545 2.56569 2.58283 2.6402 2.96778 2.73954C3.17888 2.79542 3.38378 2.86372 3.58867 2.94443C3.61972 2.95685 3.65076 2.96927 3.6756 2.98169C3.49554 3.15554 3.37136 3.36664 3.37136 3.60879C3.37136 3.71434 3.48933 3.78264 3.58246 3.73297C3.8184 3.59637 3.97363 3.36043 4.20957 3.21142C4.47655 3.04378 4.75595 2.93822 5.0664 2.86993C5.72455 2.72091 6.41995 2.74575 7.09672 2.73954C7.73624 2.73333 8.38197 2.80163 9.02149 2.77059C9.38782 2.75196 9.76035 2.70229 10.1143 2.62157C10.3937 2.55948 10.8842 2.38563 10.9587 2.08139C10.9649 2.03172 10.9214 1.99447 10.8718 2.00068Z" fill="#C75979"/>
    <path fill-rule="evenodd" clip-rule="evenodd" d="M15.8952 8.43316C15.7151 8.12271 15.3674 7.86814 15.0942 7.65083C14.7465 7.38385 14.374 7.15412 13.9704 6.98027C13.0639 6.5891 12.2257 6.04272 11.3192 5.65155C10.779 5.42182 10.0277 5.29764 9.64898 4.82577C9.6614 4.78851 9.6614 4.73884 9.63656 4.70159C9.5931 4.63329 9.55585 4.58983 9.54964 4.60224C9.60552 4.49048 9.70486 4.39735 9.798 4.31663C9.99668 4.13657 10.2326 3.99377 10.4375 3.81992C10.8846 3.44738 11.7724 2.80786 11.2136 2.1435C11.1702 2.08762 11.0957 2.14971 11.1081 2.20559C11.164 2.53467 11.1764 2.75198 10.9466 3.01897C10.779 3.21765 10.5555 3.37908 10.3133 3.47222C10.0774 3.57156 9.86629 3.71437 9.66761 3.86338C9.48134 3.99998 9.25782 4.16762 9.15848 4.38493C9.11501 4.42839 9.08397 4.49048 9.09639 4.56499C9.09639 4.57741 9.1026 4.58983 9.1026 4.60224C9.1026 4.67054 9.12743 4.73263 9.15848 4.7823C9.33854 5.18588 9.77316 5.42182 10.1705 5.58946C10.9094 5.8937 11.6483 6.18552 12.3623 6.54564C13.1198 6.9306 13.9394 7.22862 14.6534 7.69429C14.9825 7.91161 15.2991 8.15996 15.5909 8.42695C15.6903 8.52008 15.7834 8.65668 15.8269 8.78086C15.9014 9.01059 15.7027 9.06647 15.5226 9.09131C15.473 9.09752 15.4792 9.17823 15.5226 9.18444C16.0318 9.26516 16.0939 8.78707 15.8952 8.43316Z" fill="#C75979"/>
    <path fill-rule="evenodd" clip-rule="evenodd" d="M15.3922 9.32748C15.3612 9.32748 15.355 9.35852 15.3736 9.37715C15.5226 9.55721 15.771 9.74969 15.5537 9.99804C15.355 10.2278 15.0507 10.1843 14.79 10.116C14.5354 10.0477 14.2933 9.91733 14.0635 9.79936C13.84 9.68139 13.6041 9.6193 13.3619 9.54479C12.7596 9.35852 12.1698 9.14742 11.5737 8.93632C11.0211 8.73763 10.4251 8.60103 9.92216 8.2968C10.0463 8.03602 10.1333 7.76283 10.1767 7.47722C10.8845 7.7442 11.6172 7.93047 12.3499 8.12294C13.1446 8.33405 13.8959 8.61966 14.6658 8.88665C14.6968 8.89906 14.7217 8.8556 14.6968 8.83697C14.1132 8.38372 13.3184 8.17262 12.623 7.94909C11.8283 7.68832 11.0956 7.29716 10.2885 7.07364C10.2574 7.06743 10.2326 7.06122 10.2078 7.06742C10.2078 6.86253 10.1767 6.66385 10.1208 6.46516C10.0525 6.24164 9.71106 6.33477 9.77315 6.5645C9.94079 7.17919 9.78556 7.80629 9.49995 8.35889C9.35094 8.65071 9.17709 8.94873 8.95978 9.19709C8.7673 9.4144 8.53136 9.551 8.31405 9.73727C8.283 9.7621 8.32026 9.80556 8.3513 9.79936C8.52515 9.77452 8.68658 9.68139 8.8356 9.56963C8.79213 9.68139 8.82318 9.81798 8.96598 9.84282C9.81661 9.97321 10.6672 10.2216 11.4806 10.4948C12.1946 10.7307 12.9273 10.9294 13.6475 11.1653C13.9952 11.2833 14.6037 11.5317 14.8645 11.1281C14.9824 10.9418 15.0445 10.5568 14.8769 10.383C15.1749 10.4327 15.473 10.4016 15.6841 10.1408C15.9138 9.87386 15.7461 9.36473 15.3922 9.32748ZM14.7838 10.9356C14.6782 11.184 14.4485 11.1281 14.2374 11.0784C13.8462 10.9853 13.4799 10.799 13.0949 10.681C12.4244 10.4823 11.7538 10.2837 11.0832 10.0912C10.4251 9.90491 9.74831 9.73727 9.12742 9.45786C9.08395 9.43924 9.0467 9.43303 9.00945 9.43303C9.04049 9.40199 9.07774 9.37715 9.10879 9.35232C9.34473 9.15363 9.54963 8.93011 9.71727 8.67554C10.0401 8.78109 10.3878 8.8556 10.7231 8.94252C11.1329 9.04808 11.5427 9.22193 11.9401 9.36473C12.71 9.63792 13.5109 9.84903 14.256 10.1781C14.374 10.234 14.5044 10.2837 14.641 10.3271C14.641 10.3333 14.641 10.3395 14.6472 10.3457C14.8334 10.5134 14.8893 10.7059 14.7838 10.9356Z" fill="#C75979"/>
    <path fill-rule="evenodd" clip-rule="evenodd" d="M7.28278 5.27269C7.06547 5.30373 6.88541 5.45275 6.66189 5.49621C6.3887 5.54588 6.10929 5.56451 5.8361 5.5583C5.5567 5.55209 5.2773 5.51484 5.0041 5.47758C4.77437 5.44654 4.53844 5.37203 4.30871 5.37203C4.14727 5.37203 4.0976 5.57072 4.19074 5.66385C4.19074 5.67006 4.19074 5.67627 4.19074 5.68248C4.36459 6.07985 4.82405 6.30337 5.12828 6.58898C5.32076 6.76904 5.51945 6.88701 5.67467 7.10432C5.8361 7.33405 5.95407 7.58862 6.041 7.8494C6.05341 7.89907 6.12792 7.88044 6.1155 7.83077C5.97891 7.2968 5.66225 6.85596 5.38285 6.3965C5.25246 6.17919 4.97927 5.92463 4.69987 5.7694C4.82405 5.77561 4.94202 5.78182 5.05999 5.79424C5.35181 5.81907 5.64362 5.82528 5.92924 5.81287C6.19622 5.80045 6.45699 5.75699 6.70535 5.65764C6.90404 5.57693 7.18965 5.50242 7.30762 5.30994C7.32003 5.2851 7.30141 5.26648 7.28278 5.27269Z" fill="#C75979"/>
    <path fill-rule="evenodd" clip-rule="evenodd" d="M13.0885 10.9788C12.6414 11.6742 11.6169 11.4817 10.934 11.3141C10.1206 11.1154 9.35068 10.8049 8.52489 10.6497C7.22102 10.4075 5.89231 10.1592 4.71261 9.52588C3.66951 8.96708 2.47119 7.94881 2.53327 6.65114C2.54569 6.39037 2.11728 6.39037 2.12349 6.65114C2.12349 6.72565 2.12969 6.80016 2.1359 6.86846C1.75095 6.70082 1.31011 6.61389 0.887908 6.53317C0.825818 6.47108 0.745102 6.42141 0.670595 6.37795C0.627132 6.35311 0.589879 6.32828 0.552626 6.29723C0.546417 6.29103 0.540208 6.29102 0.533999 6.28482C0.4657 6.05508 0.384984 5.88124 0.378775 5.62667C0.372566 5.2976 0.428447 4.96231 0.502954 4.64565C0.633342 4.06201 0.863073 3.50942 1.0245 2.93199C1.0245 2.92578 1.0183 2.92578 1.0183 2.92578C0.602297 3.38524 0.35394 4.05581 0.186299 4.63945C0.0434935 5.12374 -0.155192 6.00541 0.198717 6.46488C0.192508 6.4835 0.198716 6.50213 0.223552 6.51455C0.844445 6.8995 1.58331 7.06714 2.24146 7.3838C2.53327 8.38965 3.34664 9.14714 4.27178 9.69352C5.53219 10.4448 7.01613 10.7242 8.45039 10.9601C9.39415 11.1154 10.3069 11.3948 11.2444 11.5562C11.8094 11.6555 13.0823 11.848 13.1878 10.9912C13.1816 10.9539 13.1133 10.9415 13.0885 10.9788Z" fill="#C75979"/>
</svg>
