<svg width="29" height="30" viewBox="0 0 29 30" fill="none" xmlns="http://www.w3.org/2000/svg">
    <path fill-rule="evenodd" clip-rule="evenodd" d="M23.9485 5.01011C21.3172 2.37579 17.8179 0.924397 14.0899 0.922852C6.40809 0.922852 0.156185 7.17459 0.153095 14.8585C0.152065 17.3148 0.793736 19.7126 2.01339 21.8261L0.0361938 29.0478L7.42433 27.1098C9.46006 28.2203 11.7519 28.8055 14.0843 28.8061H14.0901C21.7711 28.8061 28.0237 22.5539 28.0266 14.8696C28.0282 11.1456 26.5798 7.64425 23.9485 5.01011ZM14.0899 26.4525H14.0851C12.0067 26.4516 9.96818 25.8931 8.18942 24.8379L7.76662 24.5867L3.38239 25.7368L4.5526 21.4623L4.27709 21.0241C3.11752 19.1797 2.5052 17.048 2.50623 14.8594C2.50863 8.47269 7.70517 3.27667 14.0946 3.27667C17.1886 3.2777 20.0971 4.48414 22.284 6.67368C24.471 8.86322 25.6747 11.7736 25.6736 14.8688C25.6709 21.256 20.4747 26.4525 14.0899 26.4525ZM20.4438 17.7769C20.0957 17.6025 18.3835 16.7603 18.0642 16.6439C17.7453 16.5277 17.5129 16.4699 17.281 16.8183C17.0487 17.1668 16.3814 17.9513 16.1782 18.1836C15.975 18.416 15.772 18.4452 15.4237 18.2708C15.0754 18.0965 13.9535 17.7287 12.6233 16.5423C11.5881 15.619 10.8893 14.4786 10.6861 14.1301C10.4832 13.7813 10.6843 13.611 10.8388 13.4195C11.2158 12.9513 11.5933 12.4606 11.7093 12.2283C11.8256 11.9959 11.7674 11.7924 11.6802 11.6182C11.5933 11.444 10.8969 9.72994 10.6068 9.03248C10.3239 8.35373 10.037 8.44539 9.82312 8.43475C9.62022 8.42462 9.38796 8.42256 9.1557 8.42256C8.92362 8.42256 8.54631 8.5096 8.22702 8.85841C7.9079 9.20706 7.00839 10.0494 7.00839 11.7634C7.00839 13.4775 8.2562 15.1333 8.43026 15.3658C8.60433 15.5982 10.8859 19.1155 14.379 20.6237C15.2099 20.9829 15.8584 21.1969 16.3643 21.3574C17.1986 21.6225 17.9575 21.585 18.5576 21.4954C19.2267 21.3954 20.6177 20.6529 20.9082 19.8396C21.1983 19.0261 21.1983 18.329 21.1111 18.1836C21.0242 18.0383 20.7919 17.9513 20.4438 17.7769Z" fill="#C75979"/>
</svg>
